<svg xmlns="http://www.w3.org/2000/svg" width="30" height="31" fill="none"><path fill="#8692A6" d="M20.86 3.861c-2.42 0-4.54 1.041-5.86 2.8-1.32-1.759-3.44-2.8-5.86-2.8a7.274 7.274 0 0 0-7.265 7.266c0 8.203 12.163 14.843 12.68 15.117a.937.937 0 0 0 .89 0c.517-.274 12.68-6.914 12.68-15.117a7.274 7.274 0 0 0-7.266-7.266ZM15 24.346c-2.14-1.247-11.25-6.927-11.25-13.219a5.398 5.398 0 0 1 5.39-5.39c2.28 0 4.194 1.213 4.993 3.163a.937.937 0 0 0 1.734 0c.8-1.953 2.713-3.164 4.992-3.164a5.398 5.398 0 0 1 5.391 5.391c0 6.282-9.113 11.97-11.25 13.219Z"/></svg>