<svg xmlns="http://www.w3.org/2000/svg" width="30" height="31" fill="none"><path fill="#8692A6" d="M20.625 18.861a4.674 4.674 0 0 0-3.354 1.417l-5.402-3.472c.425-1.09.425-2.3 0-3.39l5.402-3.471a4.687 4.687 0 1 0-1.015-1.577l-5.402 3.473a4.687 4.687 0 1 0 0 6.541l5.402 3.472a4.687 4.687 0 1 0 4.369-2.993Zm0-15a2.813 2.813 0 1 1 0 5.626 2.813 2.813 0 0 1 0-5.626ZM7.5 17.924a2.812 2.812 0 1 1 0-5.624 2.812 2.812 0 0 1 0 5.624Zm13.125 8.437a2.812 2.812 0 1 1 0-5.624 2.812 2.812 0 0 1 0 5.624Z"/></svg>