<?xml version="1.0" encoding="UTF-8"?>
<svg id="Layer_1" data-name="Layer 1" xmlns="http://www.w3.org/2000/svg" viewBox="0 0 1024 1024">
  <defs>
    <style>
      .cls-1 {
        fill: #1dbf73;
      }

      .cls-1, .cls-2, .cls-3 {
        stroke-width: 0px;
      }

      .cls-2 {
        fill: #7a7879;
      }

      .cls-3 {
        fill: #efefef;
      }
    </style>
  </defs>
  <rect class="cls-3" width="1024" height="1024" rx="163.97" ry="163.97"/>
  <g>
    <path class="cls-2" d="M661.84,905.02c-1.49-2.21-2.59-4.04-3.31-5.52l-71.32-127.2h-224.14c-24.35-1.53-34.19-12.69-34.19-38.67V116.39h-147.3v620.8c0,104.71,66.4,169.75,173.29,169.75h309.03c-.79-.49-1.51-1.07-2.07-1.91Z"/>
    <path class="cls-1" d="M839.48,893.99l-214.05-366.32c-1.49-2.2-3.5-5.87-6.08-11.03-2.58-5.14-3.86-8.83-3.86-11.03,0-1.47,1.66-5.14,4.97-11.04,3.31-5.88,5.69-9.55,7.17-11.04l205.23-351.97c2.93-5.14,3.67-8.83,2.21-11.04-1.49-2.2-3.31-3.31-5.52-3.31h-167.71c-2.95,0-5.16,1.11-6.62,3.31-1.48,2.21-2.59,4.05-3.31,5.52l-166.61,301.22c-7.37,13.97-13.24,25.37-17.66,34.2-4.41,8.82-7.72,16.38-9.93,22.62-2.21,6.26-3.69,11.04-4.41,14.34-.74,3.31-1.1,6.45-1.1,9.38,0,16.93,11.03,44.52,33.1,82.75l101.9,181.75,71.32,127.2c.73,1.49,1.83,3.31,3.31,5.52.56.84,1.28,1.42,2.07,1.91.38.24.76.5,1.18.68h173.72c1.06-.54,2.04-1.34,2.88-2.59,1.46-2.21.72-5.88-2.21-11.04Z"/>
  </g>
</svg>